The Burning Plain*2008*[BluRay][1080p][ENG, POL]

General information:
Country: USA, Argentina 
Release: 29 August 2008 (Venice Film Festival)
Genre: Crime, Drama, Romance 
Director: Guillermo Arriaga
Screenplay: Guillermo Arriaga
Original Music: Hans Zimmer
Cinematography by: Robert Elswit
Duration: 1h 46mn
Language: English, Polish
Subtitles: English, Polish
Rating: 7.2/10 - 2586 votes

Cast:
Charlize Theron  ...  Sylvia  
John Corbett  ...  John  
José María Yazpik  ...  Carlos  
Robin Tunney  ...  Laura  
Gray Eubank  ...  Lawrence  
Fernanda Romero  ...  Sophie  
Kacie Thomas  ...  Vivi  
Marty Papazian  ...  Young Man (as Martin Papazian)  
Sean McGrath  ...  Cook  
J.D. Pardo  ...  Young Santiago (as JD Pardo)  
Diego J. Torres  ...  Cristobal (as Diego Torres)  
José Gallardo Jr.  ...  Xavier  
Rachel Ticotin  ...  Ana  
Rosalia De Aragon  ...  Aunt Rebecca (as Rosalia de Aragon)  
Debrianna Mansini  ...  Paula  

Plot:
A trailer is burning in the middle of a plain. The bodies of two adulterous lovers are found. Scenes from both families, before and after the dramatic events, suggest an unusual connection between them. But what is their secret? 

Specifications:
General
Format                           : Matroska
Overall bit rate                 : 9 970 Kbps

Video
Format                           : AVC
Format/Info                      : Advanced Video Codec
Format profile                   : High@L4.0
Format settings, CABAC           : Yes
Format settings, ReFrames        : 3 frames
Format settings, GOP             : M=4, N=29
Muxing mode                      : Container profile=Unknown@4.0
Codec ID                         : V_MPEG4/ISO/AVC
Bit rate                         : 8 890 Kbps
Width                            : 1 920 pixels
Height                           : 1 080 pixels
Display aspect ratio             : 16:9
Frame rate                       : 23.976 fps

Audio 1
Format                           : AC-3
Format/Info                      : Audio Coding 3
Mode extension                   : CM (complete main)
Codec ID                         : A_AC3
Bit rate mode                    : Constant
Bit rate                         : 640 Kbps
Channel(s)                       : 6 channels
Channel positions                : Front: L C R, Side: L R, LFE
Sampling rate                    : 48.0 KHz
Stream size                      : 489 MiB (6%)
Title                            : English

Audio 2
Format                           : AC-3
Format/Info                      : Audio Coding 3
Mode extension                   : CM (complete main)
Codec ID                         : A_AC3
Bit rate mode                    : Constant
Bit rate                         : 448 Kbps
Channel(s)                       : 6 channels
Channel positions                : Front: L C R, Side: L R, LFE
Sampling rate                    : 48.0 KHz
Stream size                      : 342 MiB (4%)
Title                            : Polish
Language                         : Polish

Text 1
Format                           : UTF-8
Codec ID                         : S_TEXT/UTF8
Codec ID/Info                    : UTF-8 Plain Text
Title                            : English

Text 2
Format                           : UTF-8
Codec ID                         : S_TEXT/UTF8
Codec ID/Info                    : UTF-8 Plain Text
Title                            : Polish
Language                         : Polish
